<svg id="Layer_1" data-name="Layer 1" xmlns="http://www.w3.org/2000/svg" viewBox="0 0 512 512">
    <defs>
        <style>.cls-1{fill:#273b7a;}.cls-2{fill:#121149;}.cls-3{fill:#ff7f4f;}.cls-4{fill:#d35933;}.cls-5{fill:#fff;}.cls-6{fill:#d0d1d3;}.cls-7{fill:#ffc61b;}.cls-8{fill:#eaa22f;}.cls-9{fill:#ff5419;}</style>
    </defs>
    <circle class="cls-1" cx="256" cy="256" r="256" />
    <path class="cls-2" d="M292,509.46c100.42-14.14,182.12-86.54,209.83-181.93L361.92,187.59l-49.36,3.84-60.05-60.05-24.09,18.89-3.16,4.31L183,194.67l75,75L113.78,331.21Z" />
    <path class="cls-3" d="M113.78,331.21a104.7,104.7,0,0,1,209.39,0Z" />
    <path class="cls-4" d="M220.09,226.56V331.21H323.17A104.67,104.67,0,0,0,220.09,226.56Z" />
    <circle class="cls-3" cx="220.16" cy="165.68" r="47.16" />
    <path class="cls-4" d="M220.16,118.52h-.07v94.32h.07a47.16,47.16,0,0,0,0-94.32Z" />
    <path class="cls-5" d="M378.61,304.5H363.1V224a32.52,32.52,0,0,0-65,0V304.5H282.55V224a48,48,0,1,1,96.06,0V304.5Z" />
    <path class="cls-6" d="M330.58,175.91h-.16v15.52h.16A32.55,32.55,0,0,1,363.1,224V304.5h15.51V224A48.09,48.09,0,0,0,330.58,175.91Z" />
    <path class="cls-7" d="M387.35,372H273.81a12.19,12.19,0,0,1-12.19-12.19V269.29a12.19,12.19,0,0,1,12.19-12.19H387.35a12.19,12.19,0,0,1,12.19,12.19v90.55A12.19,12.19,0,0,1,387.35,372Z" />
    <path class="cls-8" d="M387.35,257.1H330.42V372h56.93a12.19,12.19,0,0,0,12.19-12.19V269.29A12.19,12.19,0,0,0,387.35,257.1Z" />
    <path class="cls-8" d="M347,304.18a16.38,16.38,0,1,0-24.57,14.17v18.33a8.19,8.19,0,0,0,16.38,0V318.35A16.37,16.37,0,0,0,347,304.18Z" />
    <path class="cls-9" d="M330.58,287.8h-.16v57.05h.16a8.19,8.19,0,0,0,8.19-8.19V318.35a16.37,16.37,0,0,0-8.19-30.55Z" />
</svg>