<svg id="Capa_1" data-name="Capa 1" xmlns="http://www.w3.org/2000/svg" viewBox="0 0 503.8 508.5">
    <defs>
        <style>.cls-1{fill:#5fcdff;}.cls-2{fill:#73d7f9;}.cls-3{fill:#30b6ff;}.cls-4{fill:#ffe2e2;}.cls-5{fill:#ffefee;}.cls-6{fill:#44c7b6;}.cls-7{fill:#3bb2a0;}.cls-8{fill:#4bdbc3;}.cls-9{fill:#212f3d;}</style>
    </defs>
    <path class="cls-1" d="M375.64,191.51a181.42,181.42,0,0,1-72.3,145.1c-1.5,1.14-3,2.26-4.58,3.34a181.49,181.49,0,0,1-209.82,0c-2.22-1.56-4.38-3.18-6.52-4.84A181.41,181.41,0,0,1,12.14,191.51C12.14,91.13,93.5,9.75,193.88,9.75A181.76,181.76,0,0,1,375.64,191.51Z" transform="translate(-4.1 -1.75)" />
    <path class="cls-2" d="M112.41,335.07a180.72,180.72,0,0,0,96.44,37.56q-7.41.63-15,.62A181.72,181.72,0,0,1,12.13,191.51C12.13,91.13,93.49,9.75,193.87,9.75q7.59,0,15,.62a181.76,181.76,0,0,0-96.46,324.7Z" transform="translate(-4.1 -1.75)" />
    <path class="cls-3" d="M375.63,191.51A181.73,181.73,0,0,1,193.87,373.25c-5.06,0-10.08-.2-15-.62A181.72,181.72,0,0,0,345.63,191.51c0-95.32-73.4-173.52-166.76-181.14q7.41-.63,15-.62A181.76,181.76,0,0,1,375.63,191.51Z" transform="translate(-4.1 -1.75)" />
    <path class="cls-4" d="M298.76,330.25V340a181.49,181.49,0,0,1-209.82,0v-9.66a104.91,104.91,0,0,1,94.12-104.36c-32.42-5.22-57.22-33.6-57.22-67.84,0-38,30.46-68.72,68-68.72a66.45,66.45,0,0,1,7,.36c.56.06,1.14.12,1.7.2s1.14.14,1.7.24c1.56.24,3.12.54,4.64.88a68.88,68.88,0,0,1,0,134c-.56.14-1.12.26-1.7.38-.84.18-1.68.32-2.52.46,1.42.14,2.82.32,4.22.52A104.94,104.94,0,0,1,298.76,330.25Z" transform="translate(-4.1 -1.75)" />
    <path class="cls-5" d="M204.64,225.89c1.42.14,2.82.32,4.22.52a104.91,104.91,0,0,0-89.92,103.84v26.88a180.84,180.84,0,0,1-30-17.22v-9.66a104.91,104.91,0,0,1,94.12-104.36c-32.42-5.22-57.22-33.6-57.22-67.84,0-38,30.46-68.72,68-68.72a66.45,66.45,0,0,1,7,.36c.56.06,1.14.12,1.7.2s1.14.14,1.7.24c1.56.24,3.12.54,4.64.88a68.87,68.87,0,0,0,0,134c-.56.14-1.12.26-1.7.38-.84.18-1.68.32-2.52.46Z" transform="translate(-4.1 -1.75)" />
    <circle class="cls-6" cx="371.41" cy="376.23" r="124.33" />
    <path class="cls-7" d="M463.43,465.89a124.15,124.15,0,0,1-102.92,35.52,124.34,124.34,0,0,0,0-246.86A124.34,124.34,0,0,1,463.43,465.89Z" transform="translate(-4.1 -1.75)" />
    <path class="cls-8" d="M317.59,465.89a123.78,123.78,0,0,0,72.92,35.52,124.34,124.34,0,1,1,0-246.86,124.34,124.34,0,0,0-72.92,211.34Z" transform="translate(-4.1 -1.75)" />
    <path class="cls-4" d="M455.71,378a24,24,0,0,1-24,24h-32.2v32.2a24,24,0,1,1-48,0V402h-32.2a24,24,0,1,1,0-48h32.2V321.79a24,24,0,1,1,48,0V354h32.2A24,24,0,0,1,455.71,378Z" transform="translate(-4.1 -1.75)" />
    <path class="cls-5" d="M375.51,297.79V458.17a24,24,0,0,1-24-24V402h-32.2a24,24,0,1,1,0-48h32.2V321.79A24,24,0,0,1,375.51,297.79Z" transform="translate(-4.1 -1.75)" />
    <path class="cls-9" d="M469.05,284.41a131.93,131.93,0,0,0-93.35-38.69c36.39-122-55.69-244-181.86-244C89.22,1.75,4.1,86.88,4.1,191.51A190.15,190.15,0,0,0,80.94,344v.08c51.82,36.69,109.13,45,162.35,30.6A132.05,132.05,0,0,0,375.48,510.25c117.22,0,176.86-142.54,93.57-225.84ZM20.1,191.51C20.1,95.7,98,17.75,193.84,17.75c118.27,0,202.59,116.49,164.73,229.07A131.68,131.68,0,0,0,292.35,275,113.3,113.3,0,0,0,231,223.59a76,76,0,1,0-74.28,0,113.11,113.11,0,0,0-75.6,100.12,174.14,174.14,0,0,1-61-132.24ZM194,217.34a60,60,0,1,1,59.87-60A60.07,60.07,0,0,1,194,217.34Zm-97,118.38c0-111.49,138.15-137.79,183.25-49.5a131.49,131.49,0,0,0-35.39,71.4,173.57,173.57,0,0,1-147.86-21.9ZM457.73,460.24a116.46,116.46,0,0,1-164.51,0c-73.14-73.15-20.89-198.53,82.26-198.53s155.44,125.34,82.25,198.53Z" transform="translate(-4.1 -1.75)" />
    <path class="cls-9" d="M431.67,346H407.48V321.79a32,32,0,1,0-64,0V346h-24.2a32,32,0,0,0,0,64h24.2v24.19a32,32,0,1,0,64,0V410h24.19a32,32,0,1,0,0-64Zm0,48H399.48a8,8,0,0,0-8,8v32.19a16,16,0,1,1-32,0V402a8,8,0,0,0-8-8h-32.2a16,16,0,0,1,0-32h32.2a8,8,0,0,0,8-8V321.79a16,16,0,1,1,32,0V354a8,8,0,0,0,8,8h32.19a16,16,0,1,1,0,32Z" transform="translate(-4.1 -1.75)" />
    <path class="cls-9" d="M79.46,90.28c-2.52,2.85-5,5.83-7.26,8.85A8,8,0,0,0,78.56,112c5.27,0,6-3.33,12.88-11.09a8,8,0,0,0-12-10.61Z" transform="translate(-4.1 -1.75)" />
    <path class="cls-9" d="M66.42,122.33a8,8,0,0,0-10.65,3.8A151.35,151.35,0,0,0,42,174.65a8,8,0,1,0,15.9,1.75A135.68,135.68,0,0,1,70.23,133,8,8,0,0,0,66.42,122.33Z" transform="translate(-4.1 -1.75)" />
</svg>